<?xml version="1.0" standalone="no"?>
<!DOCTYPE svg PUBLIC "-//W3C//DTD SVG 20010904//EN"
        "http://www.w3.org/TR/2001/REC-SVG-20010904/DTD/svg10.dtd">
<svg version="1.0" xmlns="http://www.w3.org/2000/svg"
     width="40pt" height="40pt" viewBox="0 0 40 40"
     preserveAspectRatio="xMidYMid meet">
    <g transform="translate(0.000000,40) scale(0.100000,-0.100000)"
       fill="#000000" stroke="none">
        <path d="M203 335 c4 -22 7 -61 7 -87 0 -35 4 -48 14 -48 8 0 14 -8 13 -19 -1
-15 -10 -20 -39 -23 -37 -3 -51 5 -25 15 10 4 10 6 0 6 -18 1 -16 21 2 21 12
0 15 15 13 83 l-1 82 -6 -73 c-5 -65 -9 -77 -34 -98 -15 -13 -38 -24 -50 -24
-17 -1 -15 -4 13 -16 19 -8 47 -31 63 -50 l29 -35 42 46 c25 27 51 45 64 45
12 0 22 5 22 10 0 6 -13 10 -29 10 -51 0 -71 27 -82 110 -6 41 -13 77 -16 80
-3 3 -3 -13 0 -35z"/>
    </g>
</svg>